<?xml version="1.0" standalone="no"?>
<!DOCTYPE svg PUBLIC "-//W3C//DTD SVG 20010904//EN"
 "http://www.w3.org/TR/2001/REC-SVG-20010904/DTD/svg10.dtd">
<svg version="1.0" xmlns="http://www.w3.org/2000/svg"
 width="1938.000000pt" height="1938.000000pt" viewBox="0 0 1938.000000 1938.000000"
 preserveAspectRatio="xMidYMid meet">
<metadata>
Created by potrace 1.14, written by Peter Selinger 2001-2017
</metadata>
<g transform="translate(0.000000,1938.000000) scale(0.100000,-0.100000)"
fill="#000000" stroke="none">
<path d="M9690 19201 c0 -4 -46 -8 -102 -8 -57 -1 -130 -2 -163 -3 -33 -1 -68
1 -77 5 -9 4 -34 4 -55 0 -21 -4 -59 -8 -85 -10 -25 -1 -50 -5 -55 -8 -4 -2
-24 -3 -43 -1 -41 3 -223 6 -230 3 -3 -1 -14 -3 -25 -4 -11 -2 -33 -8 -50 -13
-16 -5 -77 -10 -133 -11 -57 0 -107 -3 -111 -6 -8 -4 -133 -17 -186 -19 -16
-1 -33 -4 -36 -9 -3 -4 -21 -8 -40 -10 -19 -2 -39 -5 -44 -9 -6 -3 -32 -6 -59
-7 -26 -1 -53 -4 -59 -8 -5 -3 -31 -7 -56 -9 -60 -4 -106 -11 -160 -24 -24 -6
-49 -9 -55 -7 -6 2 -17 -2 -24 -10 -16 -15 -36 -18 -27 -3 7 11 -17 10 -25 -2
-3 -3 -18 -8 -35 -11 -16 -3 -39 -8 -50 -11 -110 -26 -129 -30 -195 -42 -52
-9 -59 -11 -62 -14 -2 -1 -14 -3 -28 -5 -14 -1 -45 -8 -70 -15 -25 -7 -52 -14
-61 -15 -9 -2 -33 -8 -52 -13 -20 -6 -38 -7 -41 -4 -3 3 -6 0 -6 -7 0 -7 -8
-11 -17 -10 -10 1 -26 -1 -35 -5 -9 -4 -22 -9 -30 -10 -7 -2 -20 -6 -28 -9 -8
-3 -49 -15 -90 -27 -41 -11 -82 -24 -90 -27 -8 -4 -17 -7 -20 -8 -3 -1 -16 -6
-30 -12 -14 -6 -41 -14 -60 -18 -19 -4 -39 -10 -45 -13 -12 -7 -31 -12 -62
-15 -13 -1 -23 -5 -23 -8 0 -6 -38 -18 -75 -24 -9 -2 -23 -7 -96 -36 -14 -5
-35 -11 -47 -12 -11 0 -18 -5 -16 -9 3 -4 -6 -8 -20 -8 -14 0 -26 -5 -26 -11
0 -5 -4 -8 -9 -5 -5 3 -22 -1 -37 -9 -16 -8 -36 -15 -44 -15 -9 0 -21 -5 -28
-12 -7 -7 -12 -9 -12 -5 0 4 -16 -2 -36 -13 -19 -11 -39 -18 -45 -15 -5 4 -9
2 -9 -3 0 -8 -25 -19 -60 -26 -3 -1 -39 -17 -80 -36 -41 -19 -78 -34 -82 -33
-5 2 -8 -2 -8 -7 0 -6 -6 -10 -13 -10 -7 0 -30 -9 -51 -20 -22 -10 -42 -17
-47 -15 -4 3 -9 2 -11 -2 -4 -10 -110 -59 -120 -56 -4 2 -8 -2 -8 -7 0 -6 -5
-10 -11 -10 -6 0 -45 -16 -87 -37 -43 -20 -83 -36 -89 -36 -7 0 -13 -4 -13 -9
0 -4 -5 -8 -11 -8 -6 0 -53 -20 -106 -45 -52 -25 -99 -45 -104 -45 -5 0 -9 -4
-9 -10 0 -5 -5 -10 -11 -10 -6 0 -23 -9 -38 -19 -15 -11 -34 -21 -41 -23 -8
-2 -26 -13 -40 -25 -13 -13 -33 -23 -42 -23 -10 0 -18 -5 -18 -11 0 -6 -7 -9
-15 -5 -8 3 -15 2 -15 -3 0 -4 -18 -16 -40 -26 -22 -10 -40 -23 -40 -28 0 -6
-3 -7 -6 -4 -4 4 -19 -2 -34 -13 -16 -11 -31 -20 -35 -20 -3 0 -13 -7 -22 -16
-9 -8 -23 -12 -31 -9 -9 3 -13 3 -9 -1 6 -6 -124 -94 -138 -94 -3 0 -16 -9
-28 -20 -12 -11 -27 -18 -35 -15 -7 2 -11 1 -9 -3 3 -4 -9 -18 -26 -32 -17
-14 -28 -18 -23 -10 4 8 1 7 -8 -4 -8 -10 -20 -15 -27 -10 -8 4 -10 3 -5 -4 4
-7 3 -12 -3 -12 -5 0 -16 -6 -23 -13 -7 -7 -34 -26 -60 -41 -27 -15 -48 -32
-48 -38 0 -5 -5 -6 -10 -3 -6 3 -13 -1 -16 -9 -3 -9 -10 -16 -16 -16 -5 0 -16
-6 -23 -12 -37 -34 -46 -39 -57 -32 -6 4 -8 3 -4 -4 3 -6 -3 -13 -14 -17 -11
-3 -20 -11 -20 -16 0 -5 -6 -9 -14 -9 -8 0 -16 -3 -18 -8 -7 -16 -92 -71 -101
-65 -6 3 -7 1 -3 -6 4 -6 0 -14 -11 -18 -10 -4 -23 -12 -29 -17 -6 -6 -22 -18
-34 -26 -13 -8 -35 -24 -49 -35 -14 -11 -53 -38 -86 -60 -70 -46 -70 -46 -112
-81 -18 -14 -33 -23 -33 -19 0 3 -12 -7 -26 -22 -15 -15 -30 -27 -35 -26 -5 2
-9 -2 -9 -8 0 -5 -5 -7 -10 -4 -6 4 -9 3 -8 -2 2 -4 -15 -26 -38 -48 -47 -46
-84 -77 -84 -70 0 2 -13 -8 -30 -23 -65 -60 -113 -97 -122 -94 -5 1 -7 -2 -3
-8 3 -5 -2 -13 -12 -17 -10 -4 -28 -17 -39 -29 -12 -13 -25 -20 -30 -16 -4 4
-4 2 -1 -4 4 -7 -10 -24 -31 -40 -20 -16 -70 -61 -110 -101 -41 -40 -76 -73
-79 -73 -3 0 -14 -11 -25 -25 -11 -14 -25 -22 -31 -18 -7 3 -9 3 -5 -1 9 -10
-63 -82 -77 -78 -5 2 -7 0 -3 -4 8 -7 -29 -44 -44 -44 -5 0 -7 -4 -4 -9 7 -10
-18 -33 -27 -26 -4 3 -5 2 -3 -1 3 -3 -10 -22 -27 -41 -51 -57 -58 -63 -69
-63 -6 0 -9 -3 -5 -6 3 -3 -19 -31 -49 -61 -30 -30 -54 -59 -54 -65 0 -5 -4
-6 -10 -3 -5 3 -10 1 -10 -5 0 -10 -21 -34 -112 -131 -20 -21 -35 -39 -33 -39
2 0 -15 -19 -39 -42 -23 -24 -54 -60 -68 -80 -13 -21 -28 -35 -33 -30 -5 4 -5
1 -1 -5 7 -13 0 -25 -46 -73 -15 -15 -25 -30 -23 -32 2 -2 -16 -25 -40 -51
-24 -27 -44 -50 -43 -53 0 -3 -9 -17 -21 -30 -12 -13 -21 -27 -21 -29 0 -7
-17 -28 -44 -55 -11 -11 -16 -20 -10 -20 5 0 4 -4 -1 -8 -6 -4 -22 -23 -35
-42 -12 -19 -28 -40 -34 -45 -6 -6 -15 -18 -21 -27 -39 -63 -101 -148 -107
-148 -4 0 -8 -5 -8 -10 0 -14 -41 -72 -57 -83 -7 -4 -13 -14 -13 -22 0 -7 -3
-15 -7 -17 -9 -4 -53 -65 -53 -73 0 -3 -8 -15 -18 -26 -11 -10 -25 -32 -33
-47 -8 -15 -17 -29 -20 -32 -3 -3 -27 -39 -54 -80 -26 -41 -57 -88 -68 -104
-99 -143 -166 -246 -171 -264 -4 -12 -12 -22 -17 -22 -5 0 -8 -3 -7 -7 1 -5
-6 -25 -15 -47 -9 -21 -17 -42 -17 -46 0 -4 -7 -13 -15 -20 -8 -7 -12 -16 -9
-21 3 -5 0 -9 -5 -9 -6 0 -11 -5 -11 -11 0 -7 -8 -18 -17 -26 -11 -9 -12 -11
-3 -7 12 6 12 4 -1 -12 -9 -10 -20 -29 -23 -41 -4 -13 -12 -23 -17 -23 -5 0
-9 -9 -9 -20 0 -11 -4 -20 -8 -20 -9 0 -54 -96 -49 -106 1 -3 -6 -10 -16 -15
-9 -6 -15 -14 -12 -20 4 -5 1 -9 -4 -9 -6 0 -10 -3 -9 -7 3 -10 -44 -106 -55
-114 -5 -3 -8 -9 -8 -12 1 -13 -46 -106 -51 -101 -3 2 -5 -6 -4 -18 1 -14 -4
-22 -12 -20 -9 2 -12 -4 -7 -17 3 -11 -1 -25 -10 -34 -8 -9 -15 -22 -15 -29 0
-8 -7 -23 -15 -34 -8 -10 -15 -27 -15 -36 0 -10 -4 -18 -10 -18 -5 0 -7 -7 -4
-15 4 -8 1 -15 -5 -15 -6 0 -11 -9 -11 -21 0 -11 -5 -17 -10 -14 -6 4 -10 3
-8 -2 4 -17 -14 -73 -22 -68 -5 3 -7 -4 -5 -15 2 -11 0 -20 -6 -20 -5 0 -9 -4
-9 -9 0 -5 -7 -26 -16 -47 -9 -22 -16 -41 -16 -44 0 -3 -9 -22 -19 -42 -11
-21 -17 -38 -13 -38 4 0 1 -7 -6 -15 -7 -8 -10 -15 -6 -15 4 0 0 -10 -9 -23
-8 -13 -12 -27 -8 -30 3 -4 1 -7 -6 -7 -7 0 -10 -4 -7 -8 3 -5 -1 -21 -9 -35
-8 -15 -15 -31 -16 -35 -2 -8 -17 -51 -26 -72 -3 -8 -7 -19 -9 -25 -34 -123
-47 -162 -56 -173 -6 -7 -8 -15 -5 -19 4 -3 3 -11 -2 -17 -5 -6 -14 -29 -20
-51 -7 -22 -15 -47 -18 -55 -4 -8 -7 -17 -8 -20 0 -3 -10 -32 -20 -65 -11 -33
-20 -64 -20 -70 -3 -17 -16 -69 -22 -85 -9 -21 -10 -28 -12 -46 0 -8 -4 -13
-9 -11 -4 3 -8 -7 -8 -21 -2 -38 -15 -96 -22 -102 -4 -3 -8 -14 -9 -25 -1 -22
-11 -71 -19 -97 -9 -32 -16 -63 -18 -85 -2 -13 -6 -26 -9 -30 -4 -3 -7 -21 -7
-40 0 -18 -3 -33 -7 -33 -5 0 -9 -17 -11 -37 -1 -20 -6 -39 -10 -43 -4 -3 -7
-23 -7 -45 0 -22 -5 -51 -11 -65 -6 -14 -14 -45 -17 -70 -3 -25 -8 -56 -11
-70 -9 -48 -19 -115 -19 -127 0 -7 -3 -13 -7 -13 -4 0 -6 -10 -5 -22 1 -13 -2
-29 -8 -36 -10 -12 -17 -43 -20 -84 -1 -10 -4 -18 -7 -18 -4 0 -7 -6 -8 -12 0
-7 -3 -33 -6 -58 -3 -25 -5 -76 -5 -115 1 -79 0 -94 -7 -185 -3 -36 -8 -72
-11 -80 -3 -8 -8 -44 -10 -80 -2 -36 -8 -112 -13 -170 -6 -58 -12 -139 -14
-180 -2 -41 -6 -109 -9 -150 -27 -330 -38 -915 -18 -915 1 0 4 -65 6 -145 3
-80 7 -174 10 -210 3 -36 7 -101 9 -145 2 -44 7 -87 11 -96 3 -9 7 -46 8 -82
1 -37 5 -67 8 -67 3 0 7 -26 8 -57 1 -31 4 -60 6 -63 6 -9 18 -108 19 -155 1
-22 5 -43 9 -46 4 -3 10 -23 12 -45 6 -55 14 -105 21 -134 3 -14 7 -41 8 -62
0 -20 5 -34 9 -31 5 3 8 -3 6 -13 -1 -11 1 -30 4 -44 9 -35 17 -78 24 -125 3
-22 9 -44 13 -50 4 -5 6 -18 5 -27 -2 -10 0 -18 4 -18 4 0 8 -6 9 -12 3 -35 9
-65 16 -76 4 -7 5 -16 1 -21 -3 -5 -1 -12 5 -16 5 -3 10 -19 10 -34 0 -15 3
-31 7 -35 7 -7 13 -37 16 -88 1 -14 5 -24 10 -21 4 2 8 -6 9 -19 2 -36 3 -42
10 -53 5 -8 19 -54 34 -110 1 -5 7 -24 12 -42 6 -17 8 -34 4 -37 -3 -3 0 -6 7
-6 7 0 10 -3 8 -8 -3 -4 0 -18 6 -32 5 -14 11 -29 12 -35 2 -5 9 -30 16 -55 7
-25 12 -48 11 -52 -1 -5 3 -8 8 -8 6 0 10 -8 10 -17 0 -19 31 -114 40 -123 3
-3 6 -14 8 -25 2 -11 9 -32 16 -46 7 -14 12 -33 10 -42 -1 -10 1 -15 6 -12 4
2 10 -9 14 -26 3 -17 12 -45 20 -62 15 -36 29 -69 30 -77 1 -3 18 -48 39 -100
21 -52 42 -104 47 -115 4 -11 13 -40 20 -65 7 -25 15 -52 18 -60 3 -8 7 -26 9
-40 2 -14 13 -40 24 -58 10 -18 15 -31 10 -28 -5 3 0 -11 10 -31 11 -21 19
-43 19 -50 0 -7 4 -13 8 -13 5 0 14 -16 22 -35 8 -19 17 -35 21 -35 7 0 22
-39 20 -52 -1 -5 6 -8 14 -8 13 0 20 -19 16 -43 -1 -5 2 -6 7 -3 4 2 17 -17
27 -45 11 -27 23 -49 27 -49 4 0 8 -4 8 -9 0 -5 4 -20 9 -33 5 -13 9 -27 9
-32 0 -5 4 -12 9 -15 4 -3 15 -22 24 -41 9 -19 31 -64 48 -98 17 -35 31 -70
31 -78 0 -8 4 -14 9 -14 9 0 23 -33 25 -58 1 -7 6 -16 12 -20 13 -8 54 -90 54
-108 0 -7 4 -14 8 -16 10 -4 65 -98 57 -98 -3 0 3 -10 15 -22 11 -12 21 -25
21 -30 3 -18 5 -24 18 -48 8 -14 18 -28 23 -31 5 -3 10 -16 11 -27 1 -12 7
-22 14 -22 7 0 13 -9 13 -20 0 -11 6 -23 14 -26 9 -3 12 -12 9 -21 -4 -11 -2
-14 5 -9 7 4 12 1 12 -8 0 -8 7 -22 16 -30 8 -9 13 -16 9 -16 -3 0 6 -16 21
-35 14 -19 23 -35 18 -35 -4 0 1 -6 12 -14 10 -8 16 -17 13 -21 -4 -3 4 -18
17 -32 13 -14 21 -29 19 -33 -3 -4 2 -11 11 -14 9 -3 14 -13 11 -20 -3 -8 0
-16 6 -19 7 -3 19 -17 27 -33 8 -16 20 -34 25 -41 6 -7 16 -19 22 -27 7 -8 13
-19 13 -23 0 -5 8 -16 17 -24 10 -9 25 -26 33 -38 8 -13 25 -34 38 -48 12 -13
20 -29 17 -34 -4 -5 -1 -9 4 -9 6 0 11 -7 11 -15 0 -8 3 -15 8 -15 4 0 20 -20
35 -45 16 -25 33 -45 39 -45 6 0 7 -7 4 -16 -3 -8 -2 -13 3 -10 4 3 14 -6 21
-19 7 -14 17 -25 22 -25 4 0 8 -6 8 -14 0 -8 3 -16 7 -18 5 -1 21 -21 37 -43
17 -22 36 -44 43 -48 7 -4 13 -15 13 -22 0 -8 4 -15 8 -15 5 0 15 -11 22 -25
7 -13 17 -22 22 -19 4 3 8 0 8 -6 0 -6 11 -22 25 -35 13 -14 22 -25 20 -25 -6
0 15 -25 67 -82 21 -22 35 -46 31 -52 -3 -6 -3 -8 2 -4 4 4 15 -1 24 -11 9
-10 41 -46 71 -81 30 -35 93 -102 140 -151 128 -131 165 -173 163 -181 -2 -5
3 -8 11 -8 13 0 31 -27 28 -42 -1 -4 7 -10 18 -13 11 -4 20 -11 20 -16 0 -18
122 -145 260 -269 34 -30 68 -61 76 -68 7 -7 14 -11 14 -7 0 3 11 -6 25 -21
14 -15 25 -31 25 -35 0 -5 6 -8 13 -6 6 1 11 -4 10 -10 -2 -7 1 -12 5 -10 4 1
31 -22 60 -51 29 -28 57 -52 62 -52 5 0 16 -12 24 -27 8 -16 15 -25 16 -21 0
8 45 -31 106 -90 19 -18 34 -30 34 -27 0 2 9 -3 19 -12 11 -9 17 -21 14 -26
-3 -6 -1 -7 4 -4 6 4 32 -13 59 -38 27 -25 52 -45 55 -45 14 0 48 -38 41 -45
-4 -5 -2 -5 5 -1 6 3 18 -2 25 -12 7 -11 16 -20 20 -21 11 -2 99 -63 119 -83
10 -10 36 -29 59 -43 22 -14 40 -30 40 -36 0 -5 4 -8 9 -4 6 3 14 -2 19 -11 5
-9 12 -15 15 -15 21 3 28 0 22 -9 -3 -5 0 -10 8 -10 7 0 23 -9 35 -20 12 -12
22 -18 22 -14 0 3 20 -10 45 -30 25 -21 45 -34 45 -31 0 4 7 0 15 -7 22 -20
37 -31 75 -58 19 -13 37 -27 40 -30 3 -4 29 -22 57 -42 29 -19 50 -38 45 -43
-4 -5 -2 -5 5 -1 6 3 28 -5 49 -19 20 -14 46 -25 56 -25 14 0 18 -5 14 -15 -3
-8 -2 -14 2 -13 8 1 45 -13 52 -21 3 -3 16 -12 29 -19 13 -8 40 -23 60 -34 20
-12 62 -34 93 -51 32 -16 58 -34 58 -40 0 -6 3 -7 7 -4 3 4 13 1 22 -7 23 -20
147 -93 171 -101 11 -3 20 -11 20 -16 0 -6 4 -8 9 -5 5 4 11 3 13 -1 1 -5 35
-24 73 -43 39 -19 72 -38 73 -42 2 -5 10 -8 18 -8 8 0 14 -5 14 -11 0 -5 4 -8
9 -4 5 3 15 0 23 -7 7 -7 22 -15 33 -16 11 -2 22 -8 23 -13 2 -5 9 -9 16 -9
18 0 86 -37 80 -43 -3 -3 3 -3 15 0 12 3 21 1 21 -6 0 -6 3 -10 8 -9 4 1 21
-5 37 -12 17 -7 33 -13 38 -12 4 1 7 -3 7 -8 0 -6 11 -10 24 -10 13 0 29 -6
35 -14 10 -12 66 -31 84 -27 4 0 7 -4 7 -9 0 -6 7 -10 15 -10 8 0 40 -12 72
-26 32 -15 63 -28 68 -29 27 -7 64 -33 57 -40 -4 -5 -2 -5 5 -1 7 3 34 -5 60
-19 39 -20 133 -63 153 -70 3 -1 18 -7 33 -13 16 -7 33 -12 38 -12 6 0 7 -6 3
-12 -4 -7 -4 -10 1 -6 4 4 37 -4 74 -18 36 -14 73 -27 81 -29 8 -2 29 -9 45
-15 17 -6 37 -13 45 -15 40 -10 90 -32 84 -37 -3 -4 2 -5 13 -4 10 2 38 -4 63
-13 25 -9 52 -17 60 -16 8 0 14 -5 13 -11 -1 -7 8 -9 24 -6 15 3 24 1 20 -5
-3 -5 4 -9 16 -8 12 1 27 -1 32 -5 9 -7 50 -19 84 -26 12 -2 46 -11 71 -19 30
-9 98 -28 110 -30 79 -17 188 -50 185 -56 -3 -4 4 -5 15 -2 11 3 20 1 20 -5 0
-6 10 -9 21 -7 12 2 30 0 40 -5 9 -6 35 -12 56 -16 21 -3 52 -8 68 -11 17 -2
51 -7 78 -10 26 -3 47 -8 47 -11 0 -4 26 -8 57 -9 31 -1 63 -5 72 -9 9 -3 34
-7 57 -8 22 -2 47 -7 55 -12 8 -4 25 -10 39 -12 14 -2 26 -7 28 -12 2 -5 10
-6 18 -3 8 3 20 1 27 -5 12 -9 59 -24 87 -27 8 -1 35 -5 60 -9 90 -15 107 -16
251 -19 80 -2 151 -7 158 -11 6 -4 40 -9 74 -11 75 -4 104 -9 113 -18 4 -4 18
-7 30 -7 13 0 26 -5 29 -11 4 -6 13 -8 21 -5 7 3 16 1 19 -4 3 -5 12 -7 19 -4
8 3 17 0 21 -6 5 -8 11 -8 22 1 18 15 239 15 291 0 22 -7 30 -6 26 1 -4 6 1 8
14 4 19 -6 237 -19 307 -18 17 0 86 0 155 0 69 1 130 1 135 2 61 6 346 6 350
0 5 -9 55 -1 71 11 6 5 25 10 43 11 18 1 35 6 37 10 3 4 12 8 20 8 10 0 12 -5
8 -13 -6 -9 -4 -9 7 -1 8 6 41 12 73 13 32 1 64 5 70 8 6 4 33 8 61 9 27 1 70
6 94 10 26 4 42 3 38 -2 -3 -5 26 -8 66 -7 64 1 182 10 182 13 0 2 38 10 58
12 9 1 17 5 17 9 0 4 17 10 38 14 20 4 42 11 49 17 7 5 17 7 22 3 6 -3 19 -1
30 5 11 5 38 11 61 12 22 1 43 4 45 8 2 3 48 7 101 9 54 1 102 5 108 9 6 3 33
7 61 8 27 1 63 7 79 13 22 9 31 9 36 0 5 -7 9 -8 11 -1 4 9 29 17 84 24 11 2
22 6 25 10 3 4 18 9 34 12 16 3 32 10 35 15 4 5 24 12 46 15 22 3 58 10 80 16
74 20 131 32 153 33 6 0 12 3 12 7 0 4 6 7 13 8 24 1 73 11 105 21 17 5 32 7
32 4 0 -3 7 0 15 7 8 7 22 10 30 6 8 -3 15 -2 15 2 0 4 21 14 48 21 26 7 54
15 62 18 8 3 24 7 35 8 11 2 34 8 50 15 17 7 35 14 40 16 6 1 35 10 65 19 30
9 63 17 73 18 9 1 17 5 17 9 0 4 9 8 19 8 11 0 23 5 27 11 3 6 15 9 25 6 11
-3 19 0 19 7 0 6 8 12 18 13 27 2 45 8 79 26 18 9 36 17 42 17 5 0 31 10 58
22 26 11 54 22 61 24 8 1 23 11 35 21 14 12 18 13 12 3 -7 -12 -6 -13 7 -3 8
7 19 9 23 5 5 -4 5 -1 1 6 -5 8 1 12 18 12 14 0 26 5 26 12 0 6 3 9 6 5 4 -3
19 0 35 8 15 8 37 15 49 15 11 0 20 4 20 10 0 5 3 9 8 8 4 0 16 2 27 7 72 29
86 34 89 32 1 -1 10 4 19 12 10 7 17 10 17 7 0 -4 17 1 38 12 46 24 135 65
142 67 13 2 225 111 228 117 2 4 11 4 20 1 9 -3 14 -3 10 2 -4 4 23 24 60 43
37 19 75 41 84 49 9 8 22 12 29 7 8 -4 10 -3 5 4 -4 7 -1 12 8 12 9 0 16 5 16
10 0 6 4 10 10 10 5 0 38 18 72 40 35 22 68 40 75 40 6 0 13 3 15 8 3 8 127
69 142 70 5 0 12 4 15 9 3 4 36 24 73 43 38 19 68 38 68 42 0 4 7 5 15 2 8 -4
15 -1 15 5 0 6 7 11 15 11 8 0 15 5 15 11 0 5 5 7 10 4 6 -3 10 -1 10 4 0 6 5
11 11 11 6 0 30 14 54 30 24 17 47 30 50 30 4 0 25 14 46 31 22 17 44 27 50
23 8 -4 9 -3 5 4 -7 11 6 17 27 13 5 -1 6 3 3 8 -4 5 3 12 14 16 11 3 20 11
20 16 0 5 6 9 14 9 7 0 29 13 47 30 19 16 40 30 46 30 7 0 18 9 25 20 7 11 18
20 24 20 6 0 24 11 39 24 16 14 33 22 38 19 6 -3 7 -2 4 4 -3 5 8 18 25 28 30
17 64 44 94 73 8 7 14 11 14 8 0 -7 29 17 76 61 19 18 34 30 34 26 0 -3 11 6
25 21 14 15 25 24 25 21 0 -3 11 5 24 19 13 15 26 26 29 26 3 0 18 12 34 27
16 16 55 51 88 78 32 28 65 58 74 67 8 10 19 18 23 18 4 0 25 18 45 40 21 22
43 40 48 40 6 0 24 14 42 30 18 17 34 30 37 30 6 0 71 57 130 115 23 22 44 40
47 40 3 0 19 12 35 27 60 56 88 77 96 72 5 -3 7 -1 6 3 -2 5 14 25 35 45 20
19 37 34 37 32 0 -2 24 20 53 49 29 29 51 55 49 60 -2 4 1 7 7 7 11 0 24 13
112 108 31 34 60 58 64 54 4 -4 5 -2 3 3 -2 6 7 21 20 35 12 13 22 28 22 32 0
5 5 6 10 3 6 -3 10 -3 10 2 0 15 57 73 64 65 4 -4 6 0 4 8 -2 8 3 14 9 13 7
-2 12 1 10 6 -2 9 57 81 120 147 18 19 30 34 27 34 -2 0 1 6 8 14 7 8 17 11
22 8 5 -3 6 -1 3 4 -3 5 12 30 34 54 21 25 39 49 39 53 0 5 5 5 12 1 6 -4 8
-3 5 3 -3 5 9 26 27 46 18 20 31 39 28 42 -3 3 0 5 7 5 7 0 10 4 6 9 -3 6 1
13 8 18 7 4 26 26 43 48 16 22 34 46 41 53 7 7 20 26 30 42 9 17 21 30 25 30
4 0 8 5 8 11 0 18 37 59 45 51 5 -4 5 -2 2 4 -8 13 57 106 68 96 5 -4 5 -1 1
6 -5 8 -2 18 6 25 8 7 41 46 74 87 32 41 62 77 67 78 4 2 7 10 7 17 0 7 7 16
16 19 9 4 14 9 11 12 -3 3 17 37 44 76 27 39 46 75 43 79 -3 5 -1 9 4 9 4 0
14 16 22 35 7 19 18 31 23 28 6 -3 7 -1 3 5 -6 11 23 84 37 90 4 2 7 7 7 12 0
5 18 36 40 69 22 33 40 64 40 69 0 6 7 13 16 16 8 3 12 10 9 16 -3 5 -2 10 3
10 5 0 15 12 22 28 8 15 22 38 31 52 10 14 32 53 50 85 18 33 40 71 51 84 10
13 18 27 18 32 0 16 57 98 64 92 4 -4 4 1 0 11 -5 13 -4 17 4 12 8 -5 10 -2 5
9 -3 10 0 21 7 25 8 5 15 15 16 24 1 8 12 29 24 46 12 16 19 30 16 30 -3 0 6
16 19 36 14 20 25 43 25 50 0 8 5 14 10 14 6 0 10 9 10 21 0 13 4 18 12 13 6
-4 8 -3 5 3 -7 11 27 85 35 78 3 -3 5 1 5 8 0 7 13 40 28 73 16 32 28 63 26
68 -1 5 2 12 6 15 9 6 69 129 93 188 7 18 16 33 21 33 5 0 8 3 7 8 -4 17 14
72 24 72 6 0 8 3 5 7 -4 3 -2 12 4 20 6 7 9 13 6 13 -3 0 12 41 33 90 21 50
39 93 39 95 1 3 1 6 2 8 0 1 2 11 4 22 2 11 8 21 14 23 5 2 8 9 5 17 -3 7 0
16 5 20 6 3 9 10 6 15 -3 5 -1 11 5 15 5 3 10 15 10 26 0 10 5 19 12 19 6 0 9
3 5 6 -3 4 0 21 8 39 7 19 11 36 7 39 -3 3 0 6 6 6 7 0 11 3 10 8 -2 10 13 65
22 77 7 10 34 111 35 130 0 6 3 12 6 15 7 5 47 134 55 173 2 11 7 23 11 26 5
3 9 20 10 36 4 49 9 66 19 73 5 4 10 18 11 32 1 14 11 60 23 103 11 43 18 82
15 87 -3 4 0 10 6 12 6 2 13 26 15 53 5 59 11 78 21 72 5 -3 9 7 9 21 2 31 21
110 31 126 4 6 8 17 9 26 1 8 7 47 14 85 6 39 14 97 16 130 3 33 7 67 10 75 4
8 7 29 9 45 7 94 18 171 24 175 3 3 7 19 7 35 3 63 17 180 23 185 3 3 7 23 9
45 7 116 15 185 21 185 4 0 7 27 5 60 -1 33 2 60 7 60 5 0 9 33 9 73 0 41 3
77 7 81 4 4 8 35 9 69 0 34 3 82 7 107 3 25 9 79 12 119 3 41 8 77 13 80 4 4
7 25 7 49 0 23 2 42 5 42 11 0 15 174 4 192 -4 6 -8 174 -9 373 0 198 -3 365
-7 370 -3 6 -6 48 -7 95 -1 47 -5 112 -10 146 -4 33 -7 84 -6 112 0 29 -3 52
-6 52 -4 0 -7 26 -7 58 1 31 -3 65 -7 74 -4 10 -8 45 -9 78 0 33 -4 60 -8 60
-4 0 -7 18 -6 39 0 22 -3 45 -7 51 -4 7 -9 34 -10 60 -1 26 -4 51 -6 56 -3 5
-5 25 -4 44 0 19 -3 37 -6 40 -7 6 -19 76 -22 130 -1 19 -7 40 -13 47 -6 6
-10 24 -8 40 1 15 -2 33 -8 40 -6 7 -8 13 -5 13 3 0 1 15 -4 33 -12 38 -20 89
-22 139 -1 20 -5 34 -9 31 -5 -2 -8 -1 -9 4 -1 15 -9 58 -21 113 -13 62 -13
60 -21 80 -8 23 -20 74 -19 82 1 3 -7 31 -17 61 -11 31 -17 58 -14 61 3 3 1
11 -5 19 -6 7 -13 24 -15 37 -2 14 -7 33 -11 42 -4 9 -4 22 0 29 5 8 3 9 -6 4
-10 -6 -12 -3 -8 13 4 12 2 22 -3 22 -5 0 -8 3 -7 8 1 4 -4 24 -11 45 -7 21
-10 45 -7 53 3 8 2 12 -4 9 -11 -7 -34 71 -25 85 3 6 -1 10 -9 10 -9 0 -13 7
-11 20 2 11 -1 20 -7 20 -6 0 -8 9 -5 20 3 11 2 20 -3 20 -7 0 -22 55 -17 64
1 2 -7 14 -18 27 -11 12 -14 19 -6 14 10 -5 9 -1 -2 16 -9 13 -15 36 -13 52 2
15 0 27 -3 27 -11 0 -32 90 -25 102 4 7 2 8 -4 4 -7 -4 -12 -1 -12 7 0 8 -11
35 -25 61 -13 25 -21 46 -17 46 4 0 2 4 -4 8 -10 7 -54 95 -54 109 0 5 -7 21
-15 36 -8 15 -16 36 -17 45 -2 9 -6 20 -11 23 -4 3 -9 15 -11 26 -3 12 -13 36
-22 55 -10 18 -18 36 -19 40 0 3 -3 10 -7 14 -5 4 -8 15 -8 24 0 10 -7 23 -15
30 -8 7 -15 19 -15 27 0 7 -20 56 -45 107 -25 52 -45 99 -45 105 0 6 -5 11
-10 11 -6 0 -9 3 -9 8 1 4 -4 23 -12 42 -7 19 -12 38 -11 43 1 4 -2 7 -8 7 -5
0 -10 9 -10 20 0 11 -5 20 -10 20 -6 0 -9 3 -8 8 3 7 -101 222 -112 232 -3 3
-23 43 -45 90 -22 47 -42 87 -45 90 -12 12 -40 69 -38 77 1 4 -3 18 -10 29 -6
12 -8 24 -5 28 3 3 1 6 -5 6 -6 0 -13 14 -17 30 -4 17 -11 30 -16 30 -5 0 -9
6 -9 14 0 7 -7 19 -15 26 -8 7 -15 21 -15 31 0 10 -8 23 -17 28 -10 6 -14 11
-10 11 4 0 -3 11 -15 25 -13 14 -32 42 -43 62 -11 21 -22 40 -25 43 -10 10
-41 65 -47 83 -3 9 -9 17 -14 17 -5 0 -9 7 -9 15 0 8 -5 15 -11 15 -5 0 -8 4
-5 8 3 5 -3 18 -13 29 -11 11 -27 35 -36 53 -9 18 -26 42 -36 53 -10 12 -19
27 -19 34 0 7 -4 13 -10 13 -5 0 -10 7 -10 15 0 8 -4 15 -10 15 -5 0 -10 7
-10 15 0 8 -4 15 -10 15 -5 0 -10 6 -10 13 0 7 -9 23 -20 34 -11 12 -21 27
-22 35 -2 7 -12 20 -23 30 -11 9 -16 17 -11 18 5 0 -1 9 -14 20 -13 11 -20 20
-16 20 4 0 -3 10 -14 23 -12 12 -33 41 -47 65 -14 23 -29 42 -35 42 -6 0 -7 7
-4 16 3 8 2 12 -4 9 -6 -3 -13 2 -17 12 -4 10 -12 24 -17 31 -10 11 -43 50
-74 87 -7 8 -10 20 -7 25 3 6 0 10 -8 10 -15 0 -32 27 -28 43 1 5 -3 6 -9 2
-5 -3 -10 -3 -10 2 0 4 -10 20 -23 35 -12 15 -40 48 -62 74 -22 27 -39 52 -37
56 1 4 -5 8 -15 8 -9 0 -14 3 -11 6 4 3 -7 18 -23 33 -16 16 -29 31 -29 35 0
4 -11 19 -24 33 -14 15 -22 31 -19 36 3 6 1 7 -5 3 -7 -4 -12 -4 -12 1 0 4
-26 36 -57 70 -106 112 -128 138 -125 145 1 5 -4 7 -10 6 -7 -2 -12 3 -10 10
1 6 -3 12 -8 12 -12 0 -110 97 -110 109 0 4 -11 14 -25 21 -13 7 -23 16 -21
19 1 3 -19 27 -46 53 -26 26 -48 45 -48 44 0 -2 -51 47 -113 108 -62 61 -126
123 -143 138 -16 15 -34 33 -40 40 -6 7 -35 33 -65 58 -29 25 -63 55 -76 67
-13 12 -34 29 -46 38 -12 9 -16 13 -8 9 9 -5 12 -3 7 5 -4 6 -11 9 -15 7 -4
-3 -33 19 -64 48 -31 30 -57 52 -57 49 0 -2 -48 44 -107 103 -60 59 -110 106
-113 106 -3 -1 -15 8 -27 18 -13 11 -23 18 -23 15 0 -3 -24 13 -52 36 -29 23
-52 46 -51 50 2 5 -3 6 -11 3 -7 -3 -20 1 -27 8 -8 7 -39 31 -69 53 -30 22
-62 47 -72 55 -35 32 -53 45 -53 41 0 -3 -9 0 -20 7 -11 6 -15 12 -10 12 6 0
-10 12 -35 27 -25 15 -47 29 -50 32 -3 4 -22 17 -42 31 -21 14 -38 28 -38 33
0 4 -4 7 -10 7 -18 0 -99 57 -92 65 4 5 2 5 -5 2 -6 -4 -17 -1 -25 6 -7 7 -39
28 -70 47 -32 19 -58 38 -58 43 0 4 -4 5 -10 2 -5 -3 -10 -1 -10 4 0 6 -6 11
-14 11 -8 0 -21 6 -28 13 -19 17 -69 47 -90 54 -10 3 -18 10 -18 15 0 5 -5 6
-10 3 -6 -3 -13 1 -16 9 -3 9 -10 13 -15 10 -5 -3 -9 0 -9 5 0 6 -6 10 -12 8
-7 -1 -12 4 -10 11 1 8 -2 11 -9 6 -6 -3 -14 -3 -18 2 -3 5 -30 20 -58 34 -29
14 -53 28 -53 33 0 4 -7 7 -15 7 -8 0 -15 4 -15 8 0 4 -10 8 -22 9 -11 1 -24
6 -27 10 -3 4 -19 15 -36 23 -16 8 -33 19 -36 23 -8 11 -46 33 -81 48 -16 6
-28 15 -28 20 0 5 -9 9 -20 9 -11 0 -20 5 -20 10 0 6 -8 10 -19 10 -10 0 -24
7 -31 15 -7 8 -16 12 -21 9 -5 -3 -9 0 -9 6 0 7 -7 10 -15 6 -8 -3 -15 -2 -15
2 0 4 -22 16 -49 27 -28 10 -47 23 -45 27 3 5 2 7 -3 6 -4 -1 -24 3 -43 10
-19 7 -37 12 -39 11 -2 0 -7 3 -10 8 -9 13 -190 103 -207 103 -8 0 -14 5 -14
11 0 6 -7 9 -15 5 -8 -3 -19 2 -24 12 -6 9 -11 13 -11 8 0 -5 -6 -4 -12 2 -13
10 -18 12 -39 12 -5 0 -8 4 -5 8 2 4 -5 9 -17 10 -12 1 -47 13 -77 28 -30 15
-61 27 -67 27 -7 0 -13 5 -13 10 0 5 -7 6 -15 3 -9 -3 -18 1 -21 9 -3 8 -12
11 -21 8 -10 -4 -14 -2 -10 4 5 7 0 9 -11 6 -11 -2 -25 2 -33 10 -8 7 -20 12
-27 9 -6 -2 -12 1 -12 8 0 6 -4 8 -10 5 -5 -3 -20 0 -32 7 -13 6 -32 13 -43
15 -11 2 -22 8 -23 13 -2 6 -8 8 -13 4 -5 -3 -9 -1 -9 4 0 6 -9 8 -20 5 -12
-3 -20 0 -20 8 0 7 -3 9 -6 6 -4 -3 -15 -2 -26 4 -11 6 -27 12 -36 15 -9 2
-38 10 -64 16 -27 7 -48 16 -48 20 0 5 -13 8 -30 8 -16 0 -30 4 -30 8 0 5 -7
9 -15 10 -8 1 -22 3 -30 4 -8 1 -15 5 -15 9 0 5 -7 6 -16 2 -10 -4 -22 1 -30
11 -7 10 -17 15 -23 12 -5 -4 -12 -2 -16 3 -3 6 -12 8 -20 4 -8 -3 -15 -1 -15
4 0 8 -57 28 -107 38 -12 2 -32 9 -45 16 -13 7 -27 13 -33 14 -26 2 -75 17
-75 24 0 4 -8 7 -17 8 -42 5 -82 16 -79 22 3 4 -8 6 -22 5 -15 -1 -31 1 -37 5
-5 3 -14 6 -20 7 -5 1 -30 7 -55 14 -25 6 -58 13 -75 16 -16 2 -38 7 -47 10
-10 3 -28 7 -40 10 -49 9 -64 13 -89 22 -15 6 -30 8 -33 5 -3 -3 -12 0 -21 7
-8 7 -15 10 -15 7 0 -3 -14 -2 -32 3 -17 5 -50 12 -72 16 -48 7 -71 12 -71 14
0 1 -13 4 -30 6 -16 3 -37 7 -45 10 -8 3 -41 8 -73 10 -31 2 -65 7 -75 12 -9
4 -32 7 -50 6 -17 -1 -30 1 -28 5 3 4 -11 6 -30 5 -19 -2 -34 1 -34 6 0 6 -17
10 -38 10 -21 0 -42 3 -46 7 -4 4 -26 9 -49 10 -23 2 -49 5 -57 9 -14 5 -100
12 -220 18 -30 1 -62 5 -70 9 -49 20 -166 28 -365 24 -38 -1 -79 2 -90 7 -29
13 -52 16 -128 19 -38 2 -70 0 -73 -4 -6 -10 -288 2 -292 12 -5 11 -22 12 -22
0z"/>
</g>
</svg>
